<?xml version="1.0" encoding="utf-8"?>
<!-- Generator: Adobe Illustrator 24.2.3, SVG Export Plug-In . SVG Version: 6.00 Build 0)  -->
<svg version="1.1" id="Layer_1" xmlns="http://www.w3.org/2000/svg" xmlns:xlink="http://www.w3.org/1999/xlink" x="0px" y="0px"
	 viewBox="0 0 635 635" style="enable-background:new 0 0 635 635;" xml:space="preserve">
<style type="text/css">
	.st0{fill:#F7991C;}
	.st1{enable-background:new    ;}
	.st2{fill:#231F20;}
</style>
<g>
	<polygon class="st0" points="0,0 318.5,320 0.4,635 212.1,635 474.2,376 530.2,320 474.2,264.2 211.6,0 	"/>
	<g>
		<!-- <path d="M768.8,437.3V0H829l94.6,263.4h1.2V0h62.9v437.3h-58.9l-96-262.7h-1.5v262.7H768.8z"/> -->
		<!-- <path d="M1221.3,305.2h-124v42.4c-0.5,8.3,2.5,16.5,8.3,22.6c6.1,5.6,14.2,8.5,22.4,8c11.9,0,19.8-3.5,23.6-10.5
			c3.7-6.4,6.1-13.6,7-21h62.9c1.1,24.6-8,48.6-25.1,66.4c-8.3,8.7-18.4,15.6-29.5,20.3c-12.3,5.1-25.4,7.6-38.7,7.4
			c-17.5,0.5-34.8-3.7-50.1-12.3c-13.3-7.8-24.2-19-31.6-32.5c-4.6-8.7-7.8-18.2-9.2-27.9c-1.7-11.6-2.5-23.2-2.4-34.9V230.5
			c-0.1-11.7,0.8-23.4,2.4-34.9c1.5-9.8,4.6-19.2,9.2-27.9c7.4-13.5,18.3-24.8,31.6-32.5c15.3-8.6,32.6-12.8,50.1-12.3
			c13.4-0.2,26.6,2.3,39,7.3c11.2,4.6,21.4,11.6,29.8,20.3c16.6,19.2,25.4,44,24.5,69.4L1221.3,305.2z M1097.3,256.3h61.4v-35.6
			c0.7-9.6-2.2-19.2-8.2-26.7c-12.6-11.8-32.2-11.8-44.8,0c-6.1,7.5-9,17.1-8.3,26.7V256.3z"/>
		<path d="M1234.9,437.3l76.8-159.1l-73.1-152.5h66.3l38.7,88.4l38.7-88.4h66.4L1374.3,278l78,159.1H1386l-42.4-94.8l-42.4,95.1
			H1234.9z"/> -->
		<!-- <path d="M1467.6,0h62.9v349.2c0,11.9,2.2,20,6.5,24.3c7,5.3,15.5,8.2,24.2,8.2v59c-13,0.1-25.9-1-38.7-3.4
			c-10.8-1.9-20.9-6.4-29.5-13.2c-8.7-6.6-15.3-15.7-18.9-26.1c-4.8-14.3-7-29.4-6.5-44.5V0z"/> -->
		<!-- <path d="M1704.2,437.3v-32.2h-1.3c-6.8,10.1-15.2,19-24.9,26.4c-10.5,6.7-22.9,10-35.3,9.2c-7.6-0.1-15.1-1.2-22.4-3.4
			c-8.1-2.5-15.5-6.8-21.8-12.6c-7.6-6.7-13.5-15.3-16.9-24.9c-4.7-13.5-6.9-27.7-6.4-41.9c-0.2-15.6,1.3-31.1,4.3-46.4
			c2.4-12.3,7.9-23.9,15.9-33.5c8.1-9.1,18.5-15.7,30.1-19.3c15.8-4.7,32.4-6.9,48.9-6.4h7c2.3,0,4.7,0.2,7,0.6
			c2.4,0.5,4.9,0.7,7.4,0.6c3.1,0,6.2,0.2,9.2,0.6v-32.4c0-9.3-2.8-18.4-7.8-26.1c-5.8-7.5-15.1-11.5-24.6-10.4
			c-8.2,0-16.1,2.8-22.4,8c-7,6-11.7,14.3-13.1,23.4h-60.8c0.5-25.2,10.4-49.4,27.9-67.5c8.6-8.5,18.8-15.2,30-19.7
			c12.3-4.8,25.5-7.2,38.7-7c12.6-0.1,25,2,36.9,6.1c11.1,3.9,21.3,10.1,29.8,18.2c8.6,8.8,15.3,19.2,19.6,30.7
			c5.3,13.8,7.9,28.4,7.7,43.2V437L1704.2,437.3z M1704.2,303.4c-5.7-1.1-11.5-1.7-17.3-1.8c-12.3-0.4-24.5,2.9-34.9,9.5
			c-9.6,6.4-14.5,17.9-14.5,34.9c-0.5,10.3,2.6,20.5,8.6,28.8c5.7,7.3,14.7,11.5,24,11c9.4,0.5,18.6-3.3,24.9-10.4
			c6.6-8.5,9.8-19,9.2-29.7V303.4z"/> -->
		<!-- <path d="M1812.8,437.3V0h62.9v154.1h1.3c6.4-9.7,14.9-17.8,24.9-23.6c10-5.7,21.4-8.6,32.9-8.3c12.2-0.6,24.2,2.1,34.9,8
			c8.2,5.2,15.2,12.1,20.5,20.3c4.5,7.9,7.3,16.7,8,25.8c1.4,16.5,2,33.1,1.8,49.7v118.7c0.2,13.8-0.6,27.5-2.4,41.1
			c-1.3,9-4,17.7-8,25.8c-10.7,19.6-28.9,29.4-54.7,29.5c-12.6,0.8-25-2.4-35.6-9.2c-8.8-6.7-16.8-14.3-24-22.8v27.9L1812.8,437.3z
			 M1937.4,221.7c0.2-9-2-17.9-6.4-25.8c-4.3-7.3-12.4-11-24.3-11c-8.5-0.2-16.7,3.2-22.4,9.5c-6,6.6-9.2,15.3-8.9,24.2v121
			c-0.4,10,2.6,19.9,8.6,27.9c5.4,7,13.9,11,22.7,10.8c9.3,0.7,18.3-3.8,23.4-11.7c5.2-9.4,7.6-20,7-30.7L1937.4,221.7z"/> -->
	</g>
</g>
</svg>
